<?xml version="1.0" encoding="UTF-8" standalone="no"?>
<svg
   xmlns:dc="http://purl.org/dc/elements/1.1/"
   xmlns:cc="http://creativecommons.org/ns#"
   xmlns:rdf="http://www.w3.org/1999/02/22-rdf-syntax-ns#"
   xmlns:svg="http://www.w3.org/2000/svg"
   xmlns="http://www.w3.org/2000/svg"
   id="svg8"
   version="1.1"
   viewBox="0 0 160.41367 91.789322"
   height="91.789322mm"
   width="160.41367mm">
  <defs
     id="defs2">
    <marker
       style="overflow:visible"
       id="Arrow1Send"
       refX="0"
       refY="0"
       orient="auto">
      <path
         transform="matrix(-0.2,0,0,-0.2,-1.2,0)"
         style="fill:#001eff;fill-opacity:1;fill-rule:evenodd;stroke:#001eff;stroke-width:1.00000003pt;stroke-opacity:1"
         d="M 0,0 5,-5 -12.5,0 5,5 Z"
         id="path832" />
    </marker>
    <marker
       style="overflow:visible"
       id="marker1375"
       refX="0"
       refY="0"
       orient="auto">
      <path
         transform="matrix(-1.1,0,0,-1.1,-1.1,0)"
         d="M 8.7185878,4.0337352 -2.2072895,0.01601326 8.7185884,-4.0017078 c -1.7454984,2.3720609 -1.7354408,5.6174519 -6e-7,8.035443 z"
         style="fill:#001eff;fill-opacity:1;fill-rule:evenodd;stroke:#001eff;stroke-width:0.625;stroke-linejoin:round;stroke-opacity:1"
         id="path1373" />
    </marker>
    <marker
       style="overflow:visible"
       id="Arrow2Lend"
       refX="0"
       refY="0"
       orient="auto">
      <path
         transform="matrix(-1.1,0,0,-1.1,-1.1,0)"
         d="M 8.7185878,4.0337352 -2.2072895,0.01601326 8.7185884,-4.0017078 c -1.7454984,2.3720609 -1.7354408,5.6174519 -6e-7,8.035443 z"
         style="fill:#001eff;fill-opacity:1;fill-rule:evenodd;stroke:#001eff;stroke-width:0.625;stroke-linejoin:round;stroke-opacity:1"
         id="path838" />
    </marker>
    <marker
       style="overflow:visible"
       id="Arrow1Mstart"
       refX="0"
       refY="0"
       orient="auto">
      <path
         transform="matrix(0.4,0,0,0.4,4,0)"
         style="fill:#001eff;fill-opacity:1;fill-rule:evenodd;stroke:#001eff;stroke-width:1.00000003pt;stroke-opacity:1"
         d="M 0,0 5,-5 -12.5,0 5,5 Z"
         id="path823" />
    </marker>
    <marker
       style="overflow:visible"
       id="Arrow1Mend"
       refX="0"
       refY="0"
       orient="auto">
      <path
         transform="matrix(-0.4,0,0,-0.4,-4,0)"
         style="fill:#001eff;fill-opacity:1;fill-rule:evenodd;stroke:#001eff;stroke-width:1.00000003pt;stroke-opacity:1"
         d="M 0,0 5,-5 -12.5,0 5,5 Z"
         id="path826" />
    </marker>
    <marker
       style="overflow:visible"
       id="Arrow1Lend"
       refX="0"
       refY="0"
       orient="auto">
      <path
         transform="matrix(-0.8,0,0,-0.8,-10,0)"
         style="fill:#001eff;fill-opacity:1;fill-rule:evenodd;stroke:#001eff;stroke-width:1.00000003pt;stroke-opacity:1"
         d="M 0,0 5,-5 -12.5,0 5,5 Z"
         id="path820" />
    </marker>
    <marker
       style="overflow:visible"
       id="marker1141"
       refX="0"
       refY="0"
       orient="auto">
      <path
         transform="matrix(0.8,0,0,0.8,10,0)"
         style="fill:#001eff;fill-opacity:1;fill-rule:evenodd;stroke:#001eff;stroke-width:1.00000003pt;stroke-opacity:1"
         d="M 0,0 5,-5 -12.5,0 5,5 Z"
         id="path1139" />
    </marker>
    <marker
       style="overflow:visible"
       id="marker1113"
       refX="0"
       refY="0"
       orient="auto">
      <path
         transform="matrix(0.8,0,0,0.8,10,0)"
         style="fill:#001eff;fill-opacity:1;fill-rule:evenodd;stroke:#001eff;stroke-width:1.00000003pt;stroke-opacity:1"
         d="M 0,0 5,-5 -12.5,0 5,5 Z"
         id="path1111" />
    </marker>
    <marker
       style="overflow:visible"
       id="Arrow1Lstart"
       refX="0"
       refY="0"
       orient="auto">
      <path
         transform="matrix(0.8,0,0,0.8,10,0)"
         style="fill:#001eff;fill-opacity:1;fill-rule:evenodd;stroke:#001eff;stroke-width:1.00000003pt;stroke-opacity:1"
         d="M 0,0 5,-5 -12.5,0 5,5 Z"
         id="path817" />
    </marker>
    <marker
       style="overflow:visible"
       id="Arrow1Send-3"
       refX="0"
       refY="0"
       orient="auto">
      <path
         transform="matrix(-0.2,0,0,-0.2,-1.2,0)"
         style="fill:#001eff;fill-opacity:1;fill-rule:evenodd;stroke:#001eff;stroke-width:1.00000003pt;stroke-opacity:1"
         d="M 0,0 5,-5 -12.5,0 5,5 Z"
         id="path832-6" />
    </marker>
  </defs>
  <metadata
     id="metadata5">
    <rdf:RDF>
      <cc:Work
         rdf:about="">
        <dc:format>image/svg+xml</dc:format>
        <dc:type
           rdf:resource="http://purl.org/dc/dcmitype/StillImage" />
        <dc:title></dc:title>
      </cc:Work>
    </rdf:RDF>
  </metadata>
  <g
     transform="translate(-27.16744,-7.4742043)"
     id="layer1">
    <path
       id="path10"
       d="M 173.72519,70.62271 H 29.666917"
       style="fill:#001eff;fill-opacity:1;stroke:#001eff;stroke-width:1.39999998;stroke-linecap:butt;stroke-linejoin:miter;stroke-miterlimit:4;stroke-dasharray:none;stroke-opacity:1;marker-end:url(#Arrow1Send)" />
    <path
       id="path10-7"
       d="m 132.91093,30.23434 39.46346,38.97213"
       style="fill:#001eff;fill-opacity:1;stroke:#001eff;stroke-width:1.30503583;stroke-linecap:butt;stroke-linejoin:miter;stroke-miterlimit:4;stroke-dasharray:none;stroke-opacity:1;marker-end:url(#Arrow1Send-3)" />
    <rect
       transform="rotate(20)"
       ry="0"
       y="-8.6570139"
       x="188.56232"
       height="31.537806"
       width="6.147191"
       id="rect8579"
       style="fill:#1e96ff;fill-opacity:1;stroke:#1e96ff;stroke-width:1.39999998;stroke-miterlimit:4;stroke-dasharray:none;stroke-opacity:1" />
    <path
       id="path8583"
       d="m 69.358629,55.473214 c 0,0 -2.267857,-16.063989 13.607143,-10.961309 0,0 2.645835,-7.748512 8.882442,-1.889881 0,0 16.063986,-10.394345 18.331846,9.449405 0,0 15.875,-1.511905 10.96131,6.047619 0,0 29.48214,14.174107 2.83482,22.111607 0,0 7.9375,15.119045 -4.15774,13.229165 0,0 -5.85863,13.60713 -14.17411,-1.32291 0,0 -16.441959,11.15028 -18.520828,-3.401791 0,0 -17.575893,11.906241 -17.008929,-7.9375 0,0 -16.630952,-6.236607 -7.370536,-11.90625 0,0 -11.528277,-18.520834 6.614582,-13.418155 z"
       style="fill:#6464fa;fill-opacity:0.58823529;stroke:#6464fa;stroke-width:0.26458332px;stroke-linecap:butt;stroke-linejoin:miter;stroke-opacity:0.58823529" />
    <ellipse
       cx="121.59611"
       cy="19.704561"
       rx="5.188293"
       ry="5.2649412"
       id="path8585"
       style="fill:#f5a700;fill-opacity:0.99215686;stroke:#f5a700;stroke-width:1.35762095;stroke-miterlimit:4;stroke-dasharray:none;stroke-opacity:0.99404758" />
    <path
       id="path8589"
       d="m 115.14835,15.38137 1.76062,-1.539256 -4.44203,-3.410316 z"
       style="fill:#f5a700;fill-opacity:0.99215686;stroke:#f5a700;stroke-width:0.26458332px;stroke-linecap:butt;stroke-linejoin:miter;stroke-opacity:0.99404758" />
    <path
       id="path8589-5"
       d="m 120.70434,13.017319 2.33815,-0.04622 -1.20785,-5.4683619 z"
       style="fill:#f5a700;fill-opacity:0.99215686;stroke:#f5a700;stroke-width:0.26458332px;stroke-linecap:butt;stroke-linejoin:miter;stroke-opacity:0.99404758" />
    <path
       id="path8589-5-3"
       d="m 125.64055,13.523101 1.71445,1.59052 2.92854,-4.773415 z"
       style="fill:#f5a700;fill-opacity:0.99215686;stroke:#f5a700;stroke-width:0.26458332px;stroke-linecap:butt;stroke-linejoin:miter;stroke-opacity:0.99404758" />
    <path
       id="path8589-5-3-5"
       d="m 128.55198,18.425815 -0.026,2.338465 5.50306,-1.038382 z"
       style="fill:#f5a700;fill-opacity:0.99215686;stroke:#f5a700;stroke-width:0.26458332px;stroke-linecap:butt;stroke-linejoin:miter;stroke-opacity:0.99404758" />
    <path
       id="path8589-5-3-5-6"
       d="m 114.44461,21.069116 0.0764,-2.337363 -5.52414,0.919627 z"
       style="fill:#f5a700;fill-opacity:0.99215686;stroke:#f5a700;stroke-width:0.26458332px;stroke-linecap:butt;stroke-linejoin:miter;stroke-opacity:0.99404758" />
    <path
       id="path8589-5-3-5-6-2"
       d="m 122.9448,26.212828 -2.33727,0.07919 1.28484,5.450786 z"
       style="fill:#f5a700;fill-opacity:0.99215686;stroke:#f5a700;stroke-width:0.26458332px;stroke-linecap:butt;stroke-linejoin:miter;stroke-opacity:0.99404758" />
    <path
       id="path8589-5-3-5-6-2-9"
       d="m 116.83877,25.527019 -1.70977,-1.595556 -2.94257,4.764784 z"
       style="fill:#f5a700;fill-opacity:0.99215686;stroke:#f5a700;stroke-width:0.26458332px;stroke-linecap:butt;stroke-linejoin:miter;stroke-opacity:0.99404758" />
    <path
       id="path8589-5-3-5-6-2-9-1"
       d="m 128.38855,24.022784 -1.62533,1.68148 4.71236,3.025799 z"
       style="fill:#f5a700;fill-opacity:0.99215686;stroke:#f5a700;stroke-width:0.26458332px;stroke-linecap:butt;stroke-linejoin:miter;stroke-opacity:0.99404758" />
  </g>
</svg>
